<svg width="32" height="32" viewBox="0 0 32 32" fill="none" xmlns="http://www.w3.org/2000/svg">
  <!-- Background circle -->
  <circle cx="16" cy="16" r="15" fill="#3b82f6" stroke="#1e40af" stroke-width="2"/>
  
  <!-- Kidney shape -->
  <path d="M12 8C10 8 8 10 8 12C8 14 9 16 10 18C11 20 12 22 14 23C15 23.5 16 23.5 17 23C19 22 20 20 21 18C22 16 23 14 23 12C23 10 21 8 19 8C17.5 8 16 9 16 10.5C16 9 14.5 8 12 8Z" fill="white"/>
  
  <!-- Medical cross -->
  <rect x="14.5" y="11" width="3" height="8" fill="#3b82f6"/>
  <rect x="11" y="14.5" width="8" height="3" fill="#3b82f6"/>
  
  <!-- Highlight -->
  <circle cx="13" cy="11" r="1.5" fill="#e0f2fe" opacity="0.8"/>
</svg>