<svg width="32" height="32" viewBox="0 0 32 32" fill="none" xmlns="http://www.w3.org/2000/svg">
  <!-- Background with rounded rectangle for better mobile display -->
  <rect width="32" height="32" rx="6" fill="#2563eb"/>
  
  <!-- Kidney shape - optimized for small sizes -->
  <path d="M8 6C6 6 4 8 4 10.5C4 13 5.5 15.5 7 18C8.5 20.5 10 23 13 24.5C14.5 25.2 15.5 25.2 17 24.5C20 23 21.5 20.5 23 18C24.5 15.5 26 13 26 10.5C26 8 24 6 22 6C20 6 18.5 7.5 16 9C13.5 7.5 12 6 10 6H8Z" fill="white" stroke="#e2e8f0" stroke-width="1"/>
  
  <!-- Medical cross - bold and visible -->
  <rect x="14.5" y="8" width="3" height="14" rx="1" fill="#2563eb"/>
  <rect x="8" y="14.5" width="14" height="3" rx="1" fill="#2563eb"/>
  
  <!-- Subtle highlight -->
  <circle cx="11" cy="9" r="1.5" fill="#dbeafe" opacity="0.8"/>
</svg>