<svg width="32" height="32" viewBox="0 0 32 32" fill="none" xmlns="http://www.w3.org/2000/svg">
  <!-- High contrast background -->
  <rect width="32" height="32" rx="4" fill="#1e40af"/>
  
  <!-- Simplified kidney shape for better visibility -->
  <path d="M6 8C4 8 2 10 2 12.5C2 15 3.5 17.5 5 20C6.5 22.5 8 25 11 26.5C12.5 27.2 13.5 27.2 15 26.5C18 25 19.5 22.5 21 20C22.5 17.5 24 15 24 12.5C24 10 22 8 20 8C18 8 16.5 9.5 14 11C11.5 9.5 10 8 8 8H6Z" fill="white" stroke="#f1f5f9" stroke-width="1.5"/>
  
  <!-- Bold medical cross -->
  <rect x="13" y="6" width="6" height="18" rx="2" fill="#1e40af"/>
  <rect x="6" y="13" width="18" height="6" rx="2" fill="#1e40af"/>
  
  <!-- Corner highlight for depth -->
  <circle cx="8" cy="8" r="2" fill="#bfdbfe" opacity="0.7"/>
</svg>