<svg width="1080" height="1080" viewBox="0 0 1080 1080" xmlns="http://www.w3.org/2000/svg">
  <!-- Background Gradient -->
  <defs>
    <linearGradient id="bgGradient" x1="0%" y1="0%" x2="100%" y2="100%">
      <stop offset="0%" style="stop-color:#e0f2fe;stop-opacity:1" />
      <stop offset="50%" style="stop-color:#b3e5fc;stop-opacity:1" />
      <stop offset="100%" style="stop-color:#81d4fa;stop-opacity:1" />
    </linearGradient>
    <linearGradient id="cardGradient" x1="0%" y1="0%" x2="100%" y2="100%">
      <stop offset="0%" style="stop-color:#ffffff;stop-opacity:0.95" />
      <stop offset="100%" style="stop-color:#f8fafc;stop-opacity:0.95" />
    </linearGradient>
  </defs>
  
  <!-- Background -->
  <rect width="1080" height="1080" fill="url(#bgGradient)"/>
  
  <!-- Main Content Card -->
  <rect x="60" y="100" width="960" height="880" rx="24" fill="url(#cardGradient)" stroke="#e2e8f0" stroke-width="2"/>
  
  <!-- Logo Section -->
  <g transform="translate(540, 200)">
    <!-- Kidney Icon -->
    <path d="M-30 -25 C-45 -25 -55 -10 -55 8 C-55 25 -45 40 -25 40 C-10 40 0 25 0 8 C0 -5 -5 -15 -12 -20 C-8 -22 -5 -25 -5 -25 Z" fill="#0ea5e9" stroke="#0284c7" stroke-width="2"/>
    <!-- Activity Lines -->
    <path d="M10 -10 L15 -15 L20 -5 L25 -20 L30 0 L35 -10" fill="none" stroke="#0ea5e9" stroke-width="3" stroke-linecap="round"/>
  </g>
  
  <!-- Main Title -->
  <text x="540" y="280" text-anchor="middle" font-family="Arial, sans-serif" font-size="72" font-weight="bold" fill="#1e293b">NephroCare</text>
  <text x="540" y="330" text-anchor="middle" font-family="Arial, sans-serif" font-size="32" fill="#64748b">Advanced CKD Prediction Platform</text>
  
  <!-- Key Features Section -->
  <g transform="translate(180, 400)">
    <!-- Feature 1 -->
    <circle cx="30" cy="30" r="20" fill="#10b981" opacity="0.1"/>
    <path d="M20 30 L27 37 L40 20" fill="none" stroke="#10b981" stroke-width="3" stroke-linecap="round"/>
    <text x="70" y="25" font-family="Arial, sans-serif" font-size="28" font-weight="600" fill="#1e293b">ML-Powered Risk Assessment</text>
    <text x="70" y="45" font-family="Arial, sans-serif" font-size="20" fill="#64748b">Accurate kidney disease prediction</text>
    
    <!-- Feature 2 -->
    <g transform="translate(0, 80)">
      <circle cx="30" cy="30" r="20" fill="#3b82f6" opacity="0.1"/>
      <rect x="20" y="20" width="20" height="20" rx="2" fill="none" stroke="#3b82f6" stroke-width="3"/>
      <path d="M25 30 L30 35 L40 25" fill="none" stroke="#3b82f6" stroke-width="2" stroke-linecap="round"/>
      <text x="70" y="25" font-family="Arial, sans-serif" font-size="28" font-weight="600" fill="#1e293b">Comprehensive Symptom Checker</text>
      <text x="70" y="45" font-family="Arial, sans-serif" font-size="20" fill="#64748b">13 CKD-related symptoms analysis</text>
    </g>
    
    <!-- Feature 3 -->
    <g transform="translate(0, 160)">
      <circle cx="30" cy="30" r="20" fill="#f59e0b" opacity="0.1"/>
      <rect x="18" y="18" width="24" height="18" rx="2" fill="none" stroke="#f59e0b" stroke-width="3"/>
      <path d="M20 35 L22 35 M26 35 L28 35 M32 35 L40 35" stroke="#f59e0b" stroke-width="2" stroke-linecap="round"/>
      <text x="70" y="25" font-family="Arial, sans-serif" font-size="28" font-weight="600" fill="#1e293b">Personalized Diet Plans</text>
      <text x="70" y="45" font-family="Arial, sans-serif" font-size="20" fill="#64748b">Tailored nutrition recommendations</text>
    </g>
    
    <!-- Feature 4 -->
    <g transform="translate(0, 240)">
      <circle cx="30" cy="30" r="20" fill="#8b5cf6" opacity="0.1"/>
      <circle cx="25" cy="25" r="3" fill="#8b5cf6"/>
      <circle cx="35" cy="25" r="3" fill="#8b5cf6"/>
      <path d="M22 35 Q30 40 38 35" fill="none" stroke="#8b5cf6" stroke-width="3" stroke-linecap="round"/>
      <text x="70" y="25" font-family="Arial, sans-serif" font-size="28" font-weight="600" fill="#1e293b">NephroBot AI Assistant</text>
      <text x="70" y="45" font-family="Arial, sans-serif" font-size="20" fill="#64748b">24/7 medical guidance & support</text>
    </g>
  </g>
  
  <!-- Bilingual Support Badge -->
  <rect x="140" y="850" width="300" height="50" rx="25" fill="#16a34a" opacity="0.1"/>
  <text x="290" y="880" text-anchor="middle" font-family="Arial, sans-serif" font-size="20" font-weight="600" fill="#16a34a">🌐 English + हिंदी</text>
  
  <!-- Call to Action -->
  <rect x="540" y="850" width="380" height="50" rx="25" fill="#0ea5e9"/>
  <text x="730" y="880" text-anchor="middle" font-family="Arial, sans-serif" font-size="22" font-weight="bold" fill="white">Try NephroCare Today!</text>
  
  <!-- Bottom Section -->
  <text x="540" y="940" text-anchor="middle" font-family="Arial, sans-serif" font-size="18" fill="#64748b">Early Detection • Better Outcomes • Healthier Lives</text>
  <text x="540" y="970" text-anchor="middle" font-family="Arial, sans-serif" font-size="16" fill="#94a3b8">Contact: nephrocareai@gmail.com | Developer: Samanyu Ahuja</text>
</svg>